<svg version="1.1" id="Autodrive" xmlns="http://www.w3.org/2000/svg" xmlns:xlink="http://www.w3.org/1999/xlink" x="0px" y="0px"
	 width="792px" height="612px" viewBox="0 0 792 612" enable-background="new 0 0 792 612" xml:space="preserve">
<rect width="792" height="612"/>
<g>
	<path fill="#7C3619" d="M692.629,322.014c-0.17,0-0.342-0.041-0.498-0.116c-0.35-0.172-35.392-17.181-69.708-23.861
		c-37.238-7.25-73.149-8.18-100.275-8.18c-9.884,0-19.507,0.132-28.813,0.259c-5.382,0.074-10.662,0.146-15.831,0.19
		c-6.068,0.053-12.321,0.079-18.584,0.079c-40.082,0-114.561-1.156-163.037-8.901c-46.669-7.456-89.523-9.711-89.951-9.732
		c-0.549-0.029-0.998-0.445-1.067-0.989c-0.069-0.545,0.261-1.061,0.785-1.225c0.766-0.241,77.037-24.213,107.272-28.695
		c20.696-3.067,40.922-4.688,58.491-4.688c18.42,0,32.353,1.77,40.291,5.117c14.168,5.975,34.261,15.307,49.524,25.829
		c0.469,0.325,0.624,0.95,0.361,1.456c-0.195,0.377-0.58,0.611-1.006,0.611c-0.135,0-0.268-0.024-0.394-0.071
		c-0.251-0.093-25.952-9.582-42.592-15.595c-13.251-4.789-25.402-6.925-39.398-6.925c-8.715,0-17.442,0.773-27.547,1.668
		c-1.813,0.161-3.649,0.324-5.525,0.485c-23.26,2.004-54.729,10.283-63.098,12.566c3.237,2.766,11.639,9.169,22.878,11.979
		c14.547,3.636,76.559,5.973,87.103,6.05l1.374,0.004c10.333,0,42.045-0.586,72.713-1.154c30.334-0.561,58.986-1.091,68.234-1.091
		c28.541,0,68.456,5.232,92.846,12.171c42.025,11.956,65.916,30.545,66.152,30.731c0.457,0.36,0.567,1.003,0.258,1.494
		C693.381,321.814,693.021,322.014,692.629,322.014z"/>
	<linearGradient id="SVGID_1_" gradientUnits="userSpaceOnUse" x1="543.1553" y1="320.543" x2="304.6547" y2="245.0427">
		<stop  offset="0" style="stop-color:#FEDD10"/>
		<stop  offset="1" style="stop-color:#F06623"/>
	</linearGradient>
	<path fill="url(#SVGID_1_)" d="M692.629,321.446c-0.084,0-0.169-0.02-0.249-0.059c-0.35-0.171-35.334-17.189-69.849-23.908
		c-37.284-7.259-73.231-8.19-100.384-8.19c-9.886,0-19.512,0.132-28.821,0.259c-5.381,0.074-10.66,0.146-15.828,0.19
		c-6.096,0.053-12.347,0.079-18.579,0.079c-40.064,0-114.509-1.155-162.948-8.894c-46.583-7.442-89.582-9.717-90.011-9.739
		c-0.274-0.014-0.499-0.223-0.533-0.495s0.13-0.53,0.392-0.612c0.767-0.242,77.049-24.208,107.186-28.675
		c20.669-3.063,40.866-4.682,58.408-4.682c18.345,0,32.201,1.754,40.07,5.073c14.143,5.964,34.197,15.277,49.423,25.773
		c0.234,0.162,0.313,0.474,0.181,0.728c-0.1,0.192-0.297,0.306-0.503,0.306c-0.065,0-0.132-0.011-0.196-0.035
		c-0.258-0.095-25.949-9.581-42.597-15.597c-13.315-4.813-25.525-6.958-39.59-6.958c-8.744,0-17.486,0.775-27.609,1.672
		c-1.801,0.16-3.636,0.322-5.512,0.484c-24.469,2.108-58.098,11.174-64.215,12.863c2.53,2.276,11.483,9.691,23.906,12.796
		c14.592,3.647,76.681,5.99,87.237,6.067c0.405,0.003,0.865,0.004,1.377,0.004c10.325,0,42.046-0.586,72.724-1.154
		c30.337-0.561,58.99-1.091,68.224-1.091c28.496,0,68.345,5.223,92.69,12.149c41.899,11.919,65.722,30.446,65.957,30.631
		c0.228,0.18,0.283,0.502,0.129,0.747C693.002,321.351,692.818,321.446,692.629,321.446z"/>
	<path fill="#F26522" d="M692.629,320.879c0,0-23.485-18.505-65.762-30.531c-25.013-7.116-64.822-12.128-92.535-12.128
		c-19.286,0-125.887,2.36-142.33,2.24c-9.438-0.069-72.339-2.327-87.37-6.084c-15.03-3.757-24.895-13.621-24.895-13.621
		s38.048-10.806,65.292-13.153c27.244-2.348,46.001-4.906,72.953,4.834c16.842,6.086,42.601,15.599,42.601,15.599
		c-15.831-10.914-36.698-20.395-49.321-25.718c-15.479-6.528-54.958-6.757-98.174-0.352c-30.44,4.512-107.098,28.654-107.098,28.654
		s42.92,2.213,90.071,9.746c53.666,8.573,138.684,9.176,181.433,8.807c42.352-0.366,92.068-2.583,145.146,7.75
		C657.632,303.735,692.629,320.879,692.629,320.879z"/>
	<path fill="#7C3619" d="M287.722,334.228c-0.501,0-0.937-0.323-1.084-0.804c-12.905-42.316-79.404-45.605-99.478-45.605
		c-8.437,0-13.528,0.502-15.326,0.718c-13.512,1.621-29.062,10.178-28.418,28.957c0.021,0.586-0.402,1.086-0.984,1.163
		c-0.025,0.003-0.125,0.011-0.149,0.011c-0.529,0-0.983-0.36-1.104-0.876c-2.356-10.035,1.611-18.754,5.111-26.447
		c3.668-8.062,6.318-13.885,0.44-18.104c-0.376-0.27-0.549-0.735-0.441-1.185c0.108-0.45,0.473-0.786,0.93-0.857
		c2.966-0.456,5.689-0.677,8.326-0.677c5.364,0,10.011,0.916,15.894,2.076c9.451,1.863,22.392,4.413,47.498,5.061
		c21.516,0.556,47.139,4.665,65.848,7.665c5.043,0.808,9.357,1.5,12.965,2.022c14.199,2.057,26.565,2.833,45.285,4.008
		c10.494,0.659,22.377,1.405,37.78,2.56c16.315,1.224,36.44,1.844,59.818,1.844c41.16,0,78.707-1.951,79.075-1.971
		c0.001,0,0.002,0,0.003,0c0.588,0,1.04,0.359,1.161,0.873c0.125,0.536-0.149,1.082-0.654,1.3
		c-25.514,11.022-56.444,16.157-97.34,16.157c-17.299,0-33.862-0.864-49.88-1.699c-13.487-0.703-26.173-1.363-37.305-1.363
		c-22.82,0-35.829,2.969-42.181,9.628c-3.421,3.586-4.944,8.282-4.657,14.357c0.026,0.569-0.377,1.072-0.939,1.17
		C287.884,334.216,287.754,334.228,287.722,334.228z"/>
	<linearGradient id="SVGID_2_" gradientUnits="userSpaceOnUse" x1="517.6982" y1="324.2559" x2="142.8245" y2="290.5414">
		<stop  offset="0" style="stop-color:#FEDD10"/>
		<stop  offset="1" style="stop-color:#F06623"/>
	</linearGradient>
	<path fill="url(#SVGID_2_)" d="M287.722,333.66c-0.245,0-0.468-0.16-0.542-0.402c-13.019-42.688-79.847-46.006-100.02-46.006
		c-8.463,0-13.584,0.505-15.394,0.722c-13.75,1.65-29.574,10.376-28.917,29.54c0.01,0.292-0.203,0.543-0.492,0.581
		c-0.025,0.004-0.05,0.006-0.075,0.006c-0.26,0-0.491-0.179-0.551-0.438c-2.313-9.848,1.613-18.474,5.076-26.084
		c3.638-7.994,6.511-14.308,0.254-18.798c-0.187-0.134-0.274-0.368-0.221-0.592s0.237-0.394,0.465-0.429
		c2.938-0.452,5.633-0.671,8.239-0.671c5.308,0,9.931,0.911,15.784,2.065c9.469,1.866,22.438,4.422,47.593,5.071
		c21.474,0.554,47.078,4.66,65.772,7.658c5.017,0.804,9.351,1.499,12.973,2.024c14.221,2.06,26.597,2.837,45.331,4.013
		c10.485,0.658,22.37,1.404,37.773,2.56c16.328,1.225,36.468,1.846,59.861,1.846c41.187,0,78.731-1.952,79.105-1.972
		c0.011,0,0.021,0,0.03,0c0.262,0,0.491,0.18,0.552,0.438c0.063,0.267-0.075,0.541-0.327,0.65
		c-25.44,10.991-56.3,16.11-97.115,16.11c-17.283,0-33.839-0.863-49.851-1.698c-13.459-0.701-26.172-1.364-37.334-1.364
		c-22.988,0-36.124,3.023-42.591,9.804c-3.533,3.704-5.108,8.537-4.813,14.775c0.013,0.285-0.188,0.536-0.47,0.585
		C287.786,333.657,287.754,333.66,287.722,333.66z"/>
	<linearGradient id="SVGID_3_" gradientUnits="userSpaceOnUse" x1="325.8594" y1="307.002" x2="14.5265" y2="279.0021">
		<stop  offset="0" style="stop-color:#FEDD10"/>
		<stop  offset="1" style="stop-color:#F06623"/>
	</linearGradient>
	<path fill="url(#SVGID_3_)" d="M519.768,294.919c0,0-82.672,4.353-139.039,0.125c-43.703-3.278-61.149-3.391-83.142-6.577
		c-17.095-2.476-51.47-8.974-78.679-9.676c-48.265-1.245-51.788-9.505-71.516-6.472c12.683,9.102-9.865,24.955-5.108,45.213
		c-0.67-19.553,15.425-28.443,29.417-30.122c17.615-2.114,101.232-2.818,116.023,45.682
		C285.153,278.704,424.883,335.911,519.768,294.919z"/>
	<path fill="#7C3619" d="M196.359,366.405c-0.25,0-0.495-0.085-0.692-0.237c-16.363-12.563-20.765-37.639-10.167-57.354
		c-4.104-1.409-7.944-2.124-11.42-2.124c-11.676,0-19.978,8.233-24.006,23.808c-0.117,0.454-0.509,0.793-0.975,0.844
		c-0.02,0.002-0.102,0.008-0.123,0.008c-0.427,0-0.814-0.237-1.01-0.618c-2.273-4.463-2.337-10.534-0.174-16.656
		c2.563-7.259,7.837-13.268,14.108-16.073c6.34-2.836,16.389-4.398,28.294-4.398c12.727,0,26.157,1.729,37.815,4.867
		c0.515,0.139,0.859,0.608,0.838,1.141c-0.022,0.535-0.405,0.974-0.931,1.069c-0.211,0.039-21.279,4.115-30.201,23.345
		c-6.641,14.317-6.811,31.02-0.414,40.616c0.309,0.464,0.238,1.076-0.169,1.457C196.923,366.296,196.647,366.405,196.359,366.405z"
		/>
	<linearGradient id="SVGID_4_" gradientUnits="userSpaceOnUse" x1="231.7842" y1="323.8652" x2="148.4497" y2="335.857">
		<stop  offset="0" style="stop-color:#FEDD10"/>
		<stop  offset="1" style="stop-color:#F06623"/>
	</linearGradient>
	<path fill="url(#SVGID_4_)" d="M196.359,365.838c-0.122,0-0.243-0.039-0.345-0.118c-16.402-12.593-20.597-37.608-9.696-57.22
		c-4.404-1.578-8.518-2.377-12.238-2.377c-11.963,0-20.455,8.38-24.555,24.233c-0.059,0.229-0.253,0.396-0.487,0.422
		c-0.021,0.002-0.041,0.004-0.062,0.004c-0.211,0-0.408-0.119-0.505-0.31c-2.203-4.324-2.255-10.232-0.144-16.209
		c2.513-7.115,7.674-13.001,13.805-15.744c6.269-2.805,16.235-4.349,28.063-4.349c12.679,0,26.056,1.722,37.667,4.848
		c0.256,0.069,0.43,0.306,0.419,0.571c-0.011,0.265-0.204,0.487-0.465,0.534c-0.214,0.039-21.549,4.126-30.614,23.664
		c-6.72,14.486-6.873,31.416-0.371,41.169c0.154,0.23,0.118,0.539-0.084,0.729C196.638,365.786,196.499,365.838,196.359,365.838z"/>
	<path fill="#FFDE17" d="M227.715,299.565c0,0-21.726,3.935-31.027,23.983c-7.237,15.601-6.435,32.562-0.329,41.722
		c-16.246-12.473-20.432-37.554-9.219-57.073c-27.419-10.217-35.521,11.801-38.164,22.018c-4.756-9.336,1.308-25.774,13.387-31.178
		C175.751,293.048,204.815,293.4,227.715,299.565z"/>
	<path fill="#7C3619" d="M240.75,386.837c-22.382,0-40.591-18.21-40.591-40.592c0-1.823,0.133-3.709,0.395-5.603
		c0.077-0.559,0.559-0.98,1.123-0.98c0.625,0.023,1.094,0.479,1.132,1.062c0.139,2.166,0.493,4.326,1.051,6.42
		c3.86,14.486,17.013,24.604,31.986,24.604c2.871,0,5.747-0.378,8.548-1.124c17.646-4.704,28.177-22.888,23.476-40.536
		c-2.381-8.931-8.185-16.263-16.344-20.647c-0.514-0.276-0.733-0.892-0.511-1.432c0.175-0.426,0.587-0.701,1.048-0.701
		c0.111,0,0.222,0.017,0.329,0.05c17.043,5.095,28.949,21.087,28.949,38.889C281.341,368.627,263.132,386.837,240.75,386.837z"/>
	<linearGradient id="SVGID_5_" gradientUnits="userSpaceOnUse" x1="278.6123" y1="359.2324" x2="203.5813" y2="333.4957">
		<stop  offset="0" style="stop-color:#FEDD10"/>
		<stop  offset="1" style="stop-color:#F06623"/>
	</linearGradient>
	<path fill="url(#SVGID_5_)" d="M240.75,386.27c-22.069,0-40.024-17.955-40.024-40.024c0-1.797,0.131-3.656,0.389-5.525
		c0.039-0.281,0.279-0.49,0.561-0.49c0.007,0,0.014,0.001,0.021,0.001c0.291,0.011,0.526,0.239,0.545,0.53
		c0.142,2.202,0.501,4.399,1.069,6.529c3.926,14.734,17.305,25.024,32.534,25.024c2.92,0,5.845-0.385,8.694-1.144
		c17.948-4.784,28.66-23.279,23.878-41.229c-2.422-9.084-8.325-16.542-16.623-21.001c-0.256-0.138-0.367-0.446-0.255-0.716
		c0.089-0.217,0.3-0.351,0.524-0.351c0.054,0,0.108,0.008,0.163,0.024c16.809,5.024,28.548,20.793,28.548,38.347
		C280.774,368.314,262.819,386.27,240.75,386.27z"/>
	<path fill="#F26522" d="M201.676,340.797c0.142,2.203,0.497,4.426,1.087,6.64c4.872,18.281,23.641,29.152,41.922,24.282
		c18.282-4.873,29.15-23.641,24.28-41.923c-2.539-9.524-8.854-17.03-16.902-21.354c16.276,4.865,28.144,19.945,28.144,37.804
		c0,21.791-17.666,39.457-39.458,39.457s-39.457-17.666-39.457-39.457C201.292,344.396,201.43,342.579,201.676,340.797z"/>
	<path fill="#7C3619" d="M180.624,354.661c-0.267,0-0.526-0.096-0.731-0.268c-0.167-0.141-16.88-14.212-26.646-20.34
		c-0.333-0.208-0.531-0.567-0.531-0.961c0-8.01,9.506-23.4,22.51-23.4c1.59,0,3.198,0.235,4.778,0.698
		c0.32,0.094,0.581,0.321,0.716,0.624c0.136,0.306,0.132,0.652-0.011,0.952c-9.003,18.831,0.846,40.867,0.946,41.088
		c0.22,0.478,0.075,1.057-0.346,1.375C181.113,354.578,180.87,354.661,180.624,354.661z"/>
	<linearGradient id="SVGID_6_" gradientUnits="userSpaceOnUse" x1="163.7402" y1="313.2061" x2="177.704" y2="355.0973">
		<stop  offset="0" style="stop-color:#FEDD10"/>
		<stop  offset="1" style="stop-color:#F06623"/>
	</linearGradient>
	<path fill="url(#SVGID_6_)" d="M180.624,354.094c-0.13,0-0.26-0.045-0.366-0.134c-0.167-0.142-16.848-14.198-26.71-20.387
		c-0.166-0.104-0.266-0.285-0.266-0.48c0-7.816,9.267-22.833,21.943-22.833c1.538,0,3.092,0.228,4.619,0.675
		c0.16,0.047,0.291,0.161,0.358,0.313c0.068,0.152,0.065,0.326-0.006,0.476c-9.14,19.116,0.841,41.345,0.942,41.567
		c0.111,0.241,0.039,0.527-0.172,0.688C180.865,354.055,180.745,354.094,180.624,354.094z"/>
	<path fill="#F26522" d="M180.624,353.526c0,0-10.305-22.459-0.939-42.048c-14.42-4.225-25.836,13.159-25.836,21.614
		C163.861,339.375,180.624,353.526,180.624,353.526z"/>
</g>
<linearGradient id="SVGID_7_" gradientUnits="userSpaceOnUse" x1="333.5796" y1="315.667" x2="333.5796" y2="262.3334">
	<stop  offset="0" style="stop-color:#FFFFFF;stop-opacity:0.3"/>
	<stop  offset="1" style="stop-color:#FFFFFF;stop-opacity:0"/>
</linearGradient>
<path fill="url(#SVGID_7_)" d="M380.729,295.044c-43.703-3.278-61.149-3.391-83.142-6.577c-17.095-2.476-51.47-8.974-78.679-9.676
	c-48.265-1.245-51.788-9.505-71.516-6.472c4.764,3.419,4.556,7.791,2.693,12.99c8.121,0.451,16.907,1.008,26.354,1.688
	c11.819-0.749,34.978-0.525,57.321,4.982c26.012,2.614,55.364,6.005,88.242,10.394c49.656,6.628,95.61,8.248,136.301,7.094
	c21.29-1.995,42.294-6.266,61.467-14.548C519.768,294.919,437.096,299.272,380.729,295.044z"/>
<path fill="#FFFFFF" d="M148.976,330.215c0.06-0.229,0.125-0.473,0.19-0.714c-0.14,0.076-0.276,0.151-0.416,0.228
	C148.826,329.891,148.896,330.057,148.976,330.215z"/>
<linearGradient id="SVGID_8_" gradientUnits="userSpaceOnUse" x1="443.3535" y1="240.2349" x2="433.02" y2="227.9014">
	<stop  offset="0" style="stop-color:#FFFFFF;stop-opacity:0.2"/>
	<stop  offset="1" style="stop-color:#FFFFFF;stop-opacity:0"/>
</linearGradient>
<path fill="url(#SVGID_8_)" d="M288.667,271.656c7.08,6.407,50.434,13.601,132,11.678c33.018-0.778,111.882-2.051,124.613-1.667
	c22.054,0.667,69.054,7.333,84.054,12c12.406,3.86,47.388,18.437,62.696,26.757c-3.896-2.904-26.785-19.159-65.163-30.076
	c-25.013-7.116-64.822-12.128-92.535-12.128c-19.286,0-125.887,2.36-142.33,2.24c-9.438-0.069-72.339-2.327-87.37-6.084
	c-11.34-2.834-19.737-9.144-23.177-12.072C282.565,264.758,284.662,268.031,288.667,271.656z"/>
<linearGradient id="SVGID_9_" gradientUnits="userSpaceOnUse" x1="348.5449" y1="260.8491" x2="306.5449" y2="284.1822">
	<stop  offset="0" style="stop-color:#FFFFFF;stop-opacity:0.2"/>
	<stop  offset="1" style="stop-color:#FFFFFF;stop-opacity:0"/>
</linearGradient>
<path fill="url(#SVGID_9_)" d="M396,242.5c14.772,2.794,47.479,17.572,63.47,25.124c0.718,0.265,1.113,0.411,1.113,0.411
	c-15.831-10.914-36.698-20.395-49.321-25.718c-15.479-6.528-54.958-6.757-98.174-0.352c-30.44,4.512-107.098,28.654-107.098,28.654
	s6.872,0.354,18.13,1.262c20.041-5.94,76.576-22.518,92.911-25.381C337,243,384.658,240.355,396,242.5z"/>
<polygon fill="#F26522" points="178.282,210.095 248.779,210.095 94.332,0 23.835,0 "/>
<polygon fill="#FFDE17" points="316.36,171.097 316.445,171.097 190.667,0 120.17,0 131.197,15 131.112,15 256.891,186.097 
	327.387,186.097 "/>
<g>
	<path fill="#FFFFFF" d="M441.901,383.793c0.088-0.43,0.181-1.064,0.278-1.904c1.172-0.303,2.189-0.51,3.055-0.623
		c0.863-0.111,1.706-0.168,2.526-0.168c0.879,0,1.701,0.08,2.468,0.242c0.767,0.16,1.404,0.422,1.912,0.783s0.845,0.776,1.011,1.245
		s0.249,0.972,0.249,1.509c0,0.674-0.051,1.805-0.153,3.391c-0.102,1.588-0.179,3.055-0.232,4.402s-0.08,2.549-0.08,3.604
		c-0.528-0.02-0.958-0.029-1.29-0.029c-0.313,0-0.758,0.01-1.335,0.029l0.312-3.999l0.223-4.731c-0.343,0.264-0.6,0.449-0.771,0.557
		s-0.363,0.208-0.579,0.301c-0.215,0.093-0.451,0.181-0.711,0.264c-0.259,0.083-0.762,0.227-1.51,0.432
		c-0.747,0.205-1.277,0.361-1.59,0.469c-0.675,0.215-1.207,0.43-1.599,0.645c-0.391,0.215-0.718,0.449-0.982,0.703
		c-0.264,0.254-0.449,0.508-0.557,0.762c-0.127,0.313-0.19,0.64-0.19,0.981c0,0.527,0.156,0.986,0.469,1.377s0.705,0.662,1.18,0.813
		c0.473,0.151,1.042,0.227,1.706,0.227c0.41,0,0.84-0.028,1.289-0.085c0.449-0.058,1.05-0.205,1.802-0.442
		c-0.137,0.378-0.293,0.959-0.469,1.743c-0.713,0.137-1.294,0.222-1.743,0.257c-0.449,0.033-0.874,0.051-1.274,0.051
		c-1.338,0-2.383-0.156-3.135-0.469s-1.313-0.788-1.685-1.428s-0.557-1.336-0.557-2.088c0-0.439,0.065-0.845,0.198-1.216
		c0.131-0.371,0.31-0.708,0.534-1.011s0.545-0.605,0.96-0.908s0.85-0.552,1.304-0.747s0.984-0.388,1.59-0.579
		c0.605-0.189,1.577-0.446,2.915-0.769c0.43-0.098,0.796-0.198,1.099-0.3c0.303-0.104,0.571-0.203,0.806-0.301
		s0.439-0.213,0.615-0.344c0.176-0.133,0.338-0.293,0.484-0.484c0.146-0.189,0.254-0.383,0.322-0.578
		c0.067-0.195,0.103-0.391,0.103-0.586c0-0.479-0.156-0.889-0.47-1.23c-0.313-0.342-0.72-0.581-1.223-0.718s-1.097-0.205-1.78-0.205
		c-0.635,0-1.287,0.052-1.956,0.153c-0.669,0.104-1.245,0.226-1.729,0.367S442.624,383.51,441.901,383.793z"/>
	<path fill="#FFFFFF" d="M470.834,396.273c-0.479-0.02-0.89-0.029-1.231-0.029c-0.392,0-0.797,0.01-1.217,0.029l0.073-2.827
		c-0.234,0.439-0.438,0.779-0.608,1.019s-0.384,0.474-0.637,0.703c-0.255,0.229-0.516,0.422-0.784,0.578s-0.584,0.296-0.944,0.418
		c-0.361,0.121-0.784,0.224-1.268,0.307s-0.998,0.125-1.545,0.125c-1.191,0-2.21-0.181-3.055-0.542s-1.484-0.874-1.919-1.538
		s-0.651-1.572-0.651-2.725c0-0.176,0.01-0.474,0.029-0.894c0.019-0.42,0.048-0.967,0.087-1.641l0.246-4.878l0.043-1.567
		c0.01-0.361,0.015-0.82,0.015-1.377l1.351,0.015c0.273,0,0.694-0.005,1.262-0.015c-0.139,1.709-0.27,3.579-0.393,5.61
		c-0.124,2.031-0.186,3.33-0.186,3.896c0,0.859,0.139,1.545,0.417,2.059c0.278,0.512,0.743,0.908,1.393,1.186
		c0.65,0.279,1.386,0.418,2.206,0.418c0.723,0,1.417-0.127,2.081-0.381c0.567-0.225,1.046-0.527,1.437-0.908
		c0.42-0.42,0.771-0.962,1.056-1.626c0.205-0.488,0.361-1.118,0.469-1.89c0.068-0.557,0.137-1.558,0.205-3.003
		c0.078-1.758,0.131-3.545,0.16-5.361l1.364,0.015c0.293,0,0.703-0.005,1.231-0.015c-0.137,1.758-0.297,4.429-0.482,8.013
		C470.931,391.42,470.863,393.695,470.834,396.273z"/>
	<path fill="#FFFFFF" d="M482.258,394.34c-0.107,0.479-0.225,1.113-0.352,1.904c-0.664,0.156-1.191,0.254-1.582,0.293
		s-0.762,0.059-1.113,0.059c-0.869,0-1.57-0.109-2.102-0.33c-0.533-0.219-0.94-0.57-1.224-1.055c-0.283-0.482-0.425-1.14-0.425-1.97
		c0-0.107,0.005-0.298,0.015-0.571s0.06-1.226,0.149-2.856l0.357-6.563h-1.957c0.039-0.41,0.073-0.996,0.103-1.758h1.997
		c0.049-0.547,0.099-1.479,0.147-2.798c0.916-0.176,1.69-0.342,2.323-0.498c-0.067,1.445-0.106,2.544-0.116,3.296h4.071
		c-0.049,0.615-0.078,1.201-0.088,1.758h-4.056l-0.391,8.247l-0.015,0.63c0,0.713,0.08,1.248,0.241,1.604s0.402,0.612,0.724,0.769
		c0.322,0.156,0.658,0.234,1.01,0.234c0.243,0,0.507-0.02,0.79-0.059C481.049,394.638,481.546,394.525,482.258,394.34z"/>
	<path fill="#FFFFFF" d="M491.794,381.098c1.025,0,2.002,0.146,2.93,0.439s1.73,0.757,2.409,1.392s1.194,1.436,1.546,2.402
		s0.527,1.987,0.527,3.062c0,1.162-0.188,2.275-0.563,3.34c-0.377,1.064-0.904,1.968-1.582,2.71c-0.68,0.742-1.51,1.287-2.49,1.634
		c-0.982,0.346-2.034,0.52-3.157,0.52c-1.045,0-2.031-0.156-2.959-0.469s-1.731-0.801-2.409-1.465
		c-0.68-0.664-1.194-1.477-1.546-2.439c-0.352-0.961-0.527-1.97-0.527-3.024c0-1.592,0.322-3.024,0.967-4.3
		c0.645-1.273,1.592-2.227,2.842-2.855C489.03,381.412,490.368,381.098,491.794,381.098z M491.728,382.958
		c-0.994,0-1.908,0.249-2.742,0.747s-1.451,1.248-1.851,2.248c-0.399,1.002-0.6,2.093-0.6,3.274c0,1.035,0.166,1.966,0.497,2.79
		c0.332,0.826,0.878,1.492,1.639,2s1.677,0.762,2.75,0.762c0.731,0,1.424-0.125,2.077-0.373c0.653-0.25,1.224-0.662,1.711-1.238
		s0.849-1.281,1.082-2.117c0.234-0.834,0.352-1.711,0.352-2.629c0-0.859-0.117-1.665-0.352-2.417
		c-0.233-0.752-0.592-1.354-1.074-1.81c-0.483-0.453-1.029-0.773-1.639-0.959S492.352,382.958,491.728,382.958z"/>
	<path fill="#FFFFFF" d="M512.99,394.047c-0.02,0.156-0.071,0.447-0.154,0.871c-0.083,0.426-0.153,0.843-0.212,1.253
		c-0.713,0.166-1.399,0.278-2.058,0.337c-0.66,0.059-1.238,0.088-1.736,0.088c-1.055,0-2.029-0.142-2.922-0.425
		c-0.895-0.283-1.673-0.749-2.337-1.399c-0.664-0.648-1.152-1.454-1.465-2.416s-0.469-1.976-0.469-3.04
		c0-1.436,0.254-2.798,0.762-4.087s1.309-2.3,2.402-3.032s2.583-1.099,4.468-1.099c1.387,0,2.739,0.186,4.058,0.557
		c0.059,0.83,0.112,1.514,0.161,2.051c-0.928-0.293-1.685-0.49-2.271-0.594c-0.586-0.102-1.128-0.153-1.626-0.153
		c-0.859,0-1.629,0.156-2.307,0.469c-0.68,0.313-1.258,0.757-1.736,1.333s-0.823,1.26-1.033,2.051s-0.314,1.597-0.314,2.417
		c0,1.104,0.171,2.07,0.513,2.9s0.939,1.472,1.794,1.927c0.854,0.453,1.814,0.681,2.879,0.681
		C510.422,394.735,511.623,394.506,512.99,394.047z"/>
	<path fill="#FFFFFF" d="M517.18,383.793c0.088-0.43,0.181-1.064,0.278-1.904c1.172-0.303,2.189-0.51,3.055-0.623
		c0.863-0.111,1.706-0.168,2.526-0.168c0.879,0,1.701,0.08,2.468,0.242c0.767,0.16,1.404,0.422,1.912,0.783s0.845,0.776,1.011,1.245
		s0.249,0.972,0.249,1.509c0,0.674-0.051,1.805-0.153,3.391c-0.102,1.588-0.179,3.055-0.232,4.402s-0.08,2.549-0.08,3.604
		c-0.528-0.02-0.958-0.029-1.29-0.029c-0.313,0-0.758,0.01-1.335,0.029l0.312-3.999l0.223-4.731c-0.343,0.264-0.6,0.449-0.771,0.557
		s-0.363,0.208-0.579,0.301c-0.215,0.093-0.451,0.181-0.711,0.264c-0.259,0.083-0.762,0.227-1.51,0.432
		c-0.747,0.205-1.277,0.361-1.59,0.469c-0.675,0.215-1.207,0.43-1.599,0.645c-0.391,0.215-0.718,0.449-0.982,0.703
		c-0.264,0.254-0.449,0.508-0.557,0.762c-0.127,0.313-0.19,0.64-0.19,0.981c0,0.527,0.156,0.986,0.469,1.377s0.705,0.662,1.18,0.813
		c0.473,0.151,1.042,0.227,1.706,0.227c0.41,0,0.84-0.028,1.289-0.085c0.449-0.058,1.05-0.205,1.802-0.442
		c-0.137,0.378-0.293,0.959-0.469,1.743c-0.713,0.137-1.294,0.222-1.743,0.257c-0.449,0.033-0.874,0.051-1.274,0.051
		c-1.338,0-2.383-0.156-3.135-0.469s-1.313-0.788-1.685-1.428s-0.557-1.336-0.557-2.088c0-0.439,0.065-0.845,0.198-1.216
		c0.131-0.371,0.31-0.708,0.534-1.011s0.545-0.605,0.96-0.908s0.85-0.552,1.304-0.747s0.984-0.388,1.59-0.579
		c0.605-0.189,1.577-0.446,2.915-0.769c0.43-0.098,0.796-0.198,1.099-0.3c0.303-0.104,0.571-0.203,0.806-0.301
		s0.439-0.213,0.615-0.344c0.176-0.133,0.338-0.293,0.484-0.484c0.146-0.189,0.254-0.383,0.322-0.578
		c0.067-0.195,0.103-0.391,0.103-0.586c0-0.479-0.156-0.889-0.47-1.23c-0.313-0.342-0.72-0.581-1.223-0.718s-1.097-0.205-1.78-0.205
		c-0.635,0-1.287,0.052-1.956,0.153c-0.669,0.104-1.245,0.226-1.729,0.367S517.902,383.51,517.18,383.793z"/>
	<path fill="#FFFFFF" d="M532.136,396.273c0.352-5.635,0.526-10.132,0.526-13.491l-0.015-1.348c0.498,0.01,0.909,0.015,1.231,0.015
		c0.371,0,0.786-0.005,1.245-0.015l-0.117,2.432c0.361-0.605,0.682-1.062,0.96-1.37c0.278-0.307,0.593-0.561,0.944-0.762
		c0.352-0.199,0.75-0.355,1.194-0.469c0.444-0.111,0.905-0.168,1.384-0.168c0.41,0,0.815,0.049,1.216,0.146
		c0.01,0.645,0.044,1.367,0.103,2.168c-0.605-0.166-1.147-0.249-1.626-0.249c-0.576,0-1.094,0.095-1.552,0.286
		c-0.459,0.189-0.872,0.479-1.238,0.863c-0.366,0.387-0.666,0.848-0.9,1.385c-0.195,0.43-0.344,0.986-0.446,1.67
		s-0.184,1.929-0.242,3.735c-0.038,1.318-0.058,2.715-0.058,4.189v0.981c-0.528-0.02-0.953-0.029-1.275-0.029
		C533.176,396.244,532.731,396.254,532.136,396.273z"/>
	<path fill="#FFFFFF" d="M554.812,393.944c-0.117,0.537-0.234,1.221-0.352,2.051c-0.938,0.234-1.75,0.393-2.439,0.476
		c-0.688,0.083-1.374,0.125-2.058,0.125c-1.221,0-2.317-0.146-3.288-0.439c-0.973-0.293-1.805-0.803-2.498-1.531
		c-0.693-0.727-1.191-1.56-1.494-2.497s-0.454-1.929-0.454-2.974c0-1.455,0.278-2.805,0.835-4.051
		c0.557-1.244,1.394-2.224,2.512-2.937s2.537-1.069,4.256-1.069c0.889,0,1.738,0.13,2.549,0.389s1.484,0.651,2.021,1.179
		s0.952,1.179,1.245,1.956c0.293,0.775,0.439,1.623,0.439,2.541c0,0.352-0.029,0.693-0.088,1.025h-11.177
		c-0.039,0.537-0.059,0.947-0.059,1.23c0,1.025,0.215,1.971,0.645,2.834c0.43,0.865,1.064,1.52,1.904,1.963
		c0.84,0.445,1.807,0.667,2.9,0.667C551.472,394.882,553.005,394.569,554.812,393.944z M544.938,386.972h8.73
		c-0.01-0.615-0.049-1.094-0.117-1.436s-0.195-0.696-0.381-1.062c-0.186-0.367-0.438-0.684-0.754-0.953
		c-0.318-0.268-0.699-0.473-1.143-0.615c-0.445-0.141-0.926-0.212-1.443-0.212c-0.557,0-1.087,0.078-1.59,0.234
		s-0.947,0.371-1.332,0.645c-0.387,0.273-0.714,0.593-0.982,0.96c-0.269,0.365-0.469,0.72-0.6,1.062
		C545.194,385.937,545.065,386.396,544.938,386.972z"/>
	<path fill="#FFFFFF" d="M565.402,395.995l-0.088-1.076c0-0.118-0.039-0.492-0.117-1.121c1.504,0.654,2.891,0.981,4.16,0.981
		c0.664,0,1.226-0.088,1.685-0.263s0.803-0.436,1.032-0.781s0.345-0.703,0.345-1.073c0-0.204-0.032-0.408-0.095-0.612
		c-0.064-0.205-0.159-0.401-0.286-0.592c-0.127-0.189-0.315-0.398-0.563-0.628c-0.25-0.229-0.768-0.66-1.553-1.295
		c-0.787-0.635-1.383-1.13-1.787-1.486c-0.406-0.356-0.753-0.723-1.041-1.1c-0.288-0.375-0.5-0.754-0.637-1.135
		s-0.205-0.767-0.205-1.157c0-0.625,0.197-1.23,0.594-1.816c0.395-0.586,0.967-1.022,1.713-1.312
		c0.748-0.287,1.624-0.432,2.63-0.432c1.123,0,2.358,0.132,3.706,0.396c0.039,0.762,0.088,1.46,0.146,2.095
		c-1.094-0.449-2.173-0.674-3.237-0.674c-0.576,0-1.111,0.076-1.604,0.227c-0.493,0.152-0.854,0.379-1.084,0.682
		s-0.344,0.635-0.344,0.996c0,0.234,0.039,0.459,0.117,0.674s0.217,0.447,0.418,0.695c0.199,0.25,0.441,0.496,0.725,0.74
		s0.847,0.703,1.691,1.377s1.424,1.172,1.736,1.494s0.581,0.654,0.806,0.996s0.388,0.682,0.491,1.018
		c0.102,0.338,0.153,0.682,0.153,1.033c0,0.684-0.203,1.318-0.608,1.904s-1.008,1.04-1.809,1.362s-1.699,0.483-2.695,0.483
		c-0.42,0-0.913-0.027-1.479-0.08c-0.566-0.055-1.048-0.117-1.442-0.191C566.479,396.252,565.988,396.142,565.402,395.995z"/>
	<path fill="#FFFFFF" d="M585.383,381.098c1.025,0,2.002,0.146,2.93,0.439s1.73,0.757,2.409,1.392s1.194,1.436,1.546,2.402
		s0.527,1.987,0.527,3.062c0,1.162-0.188,2.275-0.563,3.34c-0.377,1.064-0.904,1.968-1.582,2.71c-0.68,0.742-1.51,1.287-2.49,1.634
		c-0.982,0.346-2.034,0.52-3.157,0.52c-1.045,0-2.031-0.156-2.959-0.469s-1.731-0.801-2.409-1.465
		c-0.68-0.664-1.194-1.477-1.546-2.439c-0.352-0.961-0.527-1.97-0.527-3.024c0-1.592,0.322-3.024,0.967-4.3
		c0.645-1.273,1.592-2.227,2.842-2.855C582.619,381.412,583.957,381.098,585.383,381.098z M585.316,382.958
		c-0.994,0-1.908,0.249-2.742,0.747s-1.451,1.248-1.851,2.248c-0.399,1.002-0.6,2.093-0.6,3.274c0,1.035,0.166,1.966,0.497,2.79
		c0.332,0.826,0.878,1.492,1.639,2s1.677,0.762,2.75,0.762c0.731,0,1.424-0.125,2.077-0.373c0.653-0.25,1.224-0.662,1.711-1.238
		s0.849-1.281,1.082-2.117c0.234-0.834,0.352-1.711,0.352-2.629c0-0.859-0.117-1.665-0.352-2.417
		c-0.233-0.752-0.592-1.354-1.074-1.81c-0.483-0.453-1.029-0.773-1.639-0.959S585.94,382.958,585.316,382.958z"/>
	<path fill="#FFFFFF" d="M595.681,396.273c0.194-3.008,0.385-6.572,0.569-10.693c0.127-2.998,0.22-6.099,0.278-9.302l1.363,0.015
		c0.283,0,0.719-0.005,1.305-0.015l-0.453,8.599l-0.321,8.701l-0.058,2.695c-0.577-0.02-1.007-0.029-1.291-0.029
		C596.956,396.244,596.492,396.254,595.681,396.273z"/>
	<path fill="#FFFFFF" d="M616.322,396.273c-0.479-0.02-0.89-0.029-1.231-0.029c-0.392,0-0.797,0.01-1.217,0.029l0.073-2.827
		c-0.234,0.439-0.438,0.779-0.608,1.019s-0.384,0.474-0.637,0.703c-0.255,0.229-0.516,0.422-0.784,0.578s-0.584,0.296-0.944,0.418
		c-0.361,0.121-0.784,0.224-1.268,0.307s-0.998,0.125-1.545,0.125c-1.191,0-2.21-0.181-3.055-0.542s-1.484-0.874-1.919-1.538
		s-0.651-1.572-0.651-2.725c0-0.176,0.01-0.474,0.029-0.894c0.019-0.42,0.048-0.967,0.087-1.641l0.246-4.878l0.043-1.567
		c0.01-0.361,0.015-0.82,0.015-1.377l1.351,0.015c0.273,0,0.694-0.005,1.262-0.015c-0.139,1.709-0.27,3.579-0.393,5.61
		c-0.124,2.031-0.186,3.33-0.186,3.896c0,0.859,0.139,1.545,0.417,2.059c0.278,0.512,0.743,0.908,1.393,1.186
		c0.65,0.279,1.386,0.418,2.206,0.418c0.723,0,1.417-0.127,2.081-0.381c0.567-0.225,1.046-0.527,1.437-0.908
		c0.42-0.42,0.771-0.962,1.056-1.626c0.205-0.488,0.361-1.118,0.469-1.89c0.068-0.557,0.137-1.558,0.205-3.003
		c0.078-1.758,0.131-3.545,0.16-5.361l1.364,0.015c0.293,0,0.703-0.005,1.231-0.015c-0.137,1.758-0.297,4.429-0.482,8.013
		C616.419,391.42,616.352,393.695,616.322,396.273z"/>
	<path fill="#FFFFFF" d="M627.746,394.34c-0.107,0.479-0.225,1.113-0.352,1.904c-0.664,0.156-1.191,0.254-1.582,0.293
		s-0.762,0.059-1.113,0.059c-0.869,0-1.57-0.109-2.102-0.33c-0.533-0.219-0.94-0.57-1.224-1.055c-0.283-0.482-0.425-1.14-0.425-1.97
		c0-0.107,0.005-0.298,0.015-0.571s0.06-1.226,0.149-2.856l0.357-6.563h-1.957c0.039-0.41,0.073-0.996,0.103-1.758h1.997
		c0.049-0.547,0.099-1.479,0.147-2.798c0.916-0.176,1.69-0.342,2.323-0.498c-0.067,1.445-0.106,2.544-0.116,3.296h4.071
		c-0.049,0.615-0.078,1.201-0.088,1.758h-4.056l-0.391,8.247l-0.015,0.63c0,0.713,0.08,1.248,0.241,1.604s0.402,0.612,0.724,0.769
		c0.322,0.156,0.658,0.234,1.01,0.234c0.243,0,0.507-0.02,0.79-0.059C626.537,394.638,627.034,394.525,627.746,394.34z"/>
	<path fill="#FFFFFF" d="M629.973,396.273l0.254-3.691l0.284-6.299l0.119-4.849l1.349,0.015l1.319-0.015
		c-0.109,1.523-0.209,3.118-0.299,4.782c-0.09,1.666-0.162,3.484-0.217,5.457s-0.082,3.506-0.082,4.6
		c-0.616-0.02-1.056-0.029-1.32-0.029C631.136,396.244,630.667,396.254,629.973,396.273z M630.646,378.241
		c0.029-0.918,0.044-1.611,0.044-2.08c0.537,0.02,1.011,0.029,1.421,0.029c0.518,0,0.986-0.01,1.406-0.029
		c-0.02,0.303-0.049,0.996-0.088,2.08c-0.527-0.01-0.981-0.015-1.362-0.015S631.213,378.231,630.646,378.241z"/>
	<path fill="#FFFFFF" d="M644.035,381.098c1.025,0,2.002,0.146,2.93,0.439s1.73,0.757,2.409,1.392s1.194,1.436,1.546,2.402
		s0.527,1.987,0.527,3.062c0,1.162-0.188,2.275-0.563,3.34c-0.377,1.064-0.904,1.968-1.582,2.71c-0.68,0.742-1.51,1.287-2.49,1.634
		c-0.982,0.346-2.034,0.52-3.157,0.52c-1.045,0-2.031-0.156-2.959-0.469s-1.731-0.801-2.409-1.465
		c-0.68-0.664-1.194-1.477-1.546-2.439c-0.352-0.961-0.527-1.97-0.527-3.024c0-1.592,0.322-3.024,0.967-4.3
		c0.645-1.273,1.592-2.227,2.842-2.855C641.271,381.412,642.609,381.098,644.035,381.098z M643.969,382.958
		c-0.994,0-1.908,0.249-2.742,0.747s-1.451,1.248-1.851,2.248c-0.399,1.002-0.6,2.093-0.6,3.274c0,1.035,0.166,1.966,0.497,2.79
		c0.332,0.826,0.878,1.492,1.639,2s1.677,0.762,2.75,0.762c0.731,0,1.424-0.125,2.077-0.373c0.653-0.25,1.224-0.662,1.711-1.238
		s0.849-1.281,1.082-2.117c0.234-0.834,0.352-1.711,0.352-2.629c0-0.859-0.117-1.665-0.352-2.417
		c-0.233-0.752-0.592-1.354-1.074-1.81c-0.483-0.453-1.029-0.773-1.639-0.959S644.593,382.958,643.969,382.958z"/>
	<path fill="#FFFFFF" d="M654.23,396.273c0.467-6.123,0.71-11.069,0.729-14.839l1.32,0.015c0.322,0,0.747-0.005,1.275-0.015
		l-0.193,2.93c0.244-0.41,0.439-0.726,0.586-0.944c0.146-0.221,0.342-0.452,0.586-0.696s0.532-0.471,0.864-0.681
		s0.723-0.386,1.173-0.527c0.449-0.142,0.905-0.247,1.369-0.315s0.926-0.103,1.385-0.103c0.841,0,1.651,0.103,2.433,0.308
		s1.424,0.54,1.927,1.003c0.503,0.465,0.84,0.984,1.011,1.561s0.257,1.196,0.257,1.86c0,0.127-0.005,0.371-0.015,0.732
		s-0.029,0.835-0.058,1.421l-0.291,6.138c-0.02,0.586-0.033,1.304-0.043,2.153c-0.44-0.02-0.856-0.029-1.247-0.029
		c-0.479,0-0.929,0.01-1.35,0.029c0.099-1.182,0.172-2.319,0.222-3.413l0.192-3.413c0.059-1.172,0.089-2.056,0.089-2.651
		c0-0.859-0.147-1.546-0.44-2.058c-0.293-0.514-0.763-0.908-1.407-1.188c-0.646-0.277-1.369-0.417-2.171-0.417
		c-1.135,0-2.107,0.269-2.919,0.806c-0.743,0.498-1.319,1.206-1.73,2.124c-0.283,0.654-0.483,1.621-0.601,2.9
		c-0.149,1.533-0.254,3.97-0.313,7.31c-0.545-0.02-0.968-0.029-1.269-0.029C655.3,396.244,654.843,396.254,654.23,396.273z"/>
</g>
<g>
	<g>
		<path fill="#7C3619" d="M340.84,370.994c-0.625,0-1.134-0.51-1.134-1.135v-7.894h-19.399v7.894c0,0.625-0.509,1.135-1.134,1.135
			h-8.125c-0.625,0-1.134-0.51-1.134-1.135v-25.01c0-3.243,1.121-6.008,3.332-8.22c2.294-2.31,5.019-3.481,8.098-3.481h27.619
			c0.625,0,1.134,0.51,1.134,1.135v35.576c0,0.625-0.509,1.135-1.134,1.135H340.84z M339.707,351.571v-8.051h-18.361
			c-0.352,0-0.598,0.071-0.753,0.22c-0.254,0.256-0.285,0.45-0.285,0.573v7.258H339.707z"/>
		<linearGradient id="SVGID_10_" gradientUnits="userSpaceOnUse" x1="318.6147" y1="350.4795" x2="683.6149" y2="401.4795">
			<stop  offset="0" style="stop-color:#FEDD10"/>
			<stop  offset="1" style="stop-color:#F06623"/>
		</linearGradient>
		<path fill="url(#SVGID_10_)" d="M340.84,370.427c-0.313,0-0.567-0.254-0.567-0.567v-8.461h-20.533v8.461
			c0,0.313-0.254,0.567-0.567,0.567h-8.125c-0.313,0-0.567-0.254-0.567-0.567v-25.01c0-3.087,1.065-5.718,3.166-7.818
			c2.185-2.199,4.775-3.315,7.697-3.315h27.619c0.313,0,0.567,0.254,0.567,0.567v35.576c0,0.313-0.254,0.567-0.567,0.567H340.84z
			 M340.273,352.139v-9.186h-18.928c-0.504,0-0.879,0.123-1.145,0.378c-0.306,0.308-0.459,0.632-0.459,0.982v7.825H340.273z"/>
		<linearGradient id="SVGID_11_" gradientUnits="userSpaceOnUse" x1="591.7441" y1="307.9863" x2="247.7402" y2="366.987">
			<stop  offset="0" style="stop-color:#FEDD10"/>
			<stop  offset="1" style="stop-color:#F06623"/>
		</linearGradient>
		<path fill="url(#SVGID_11_)" d="M340.84,360.831h-21.667v9.028h-8.125v-25.01c0-2.944,1-5.418,3-7.417
			c2.083-2.098,4.515-3.149,7.296-3.149h27.619v35.576h-8.124V360.831z M340.84,352.706v-10.32h-19.495
			c-0.649,0-1.163,0.178-1.537,0.536c-0.422,0.424-0.634,0.887-0.634,1.392v8.393H340.84z"/>
		<path fill="#7C3619" d="M353.846,370.994c-0.625,0-1.134-0.51-1.134-1.135v-35.576c0-0.625,0.509-1.135,1.134-1.135h8.125
			c0.625,0,1.134,0.51,1.134,1.135v26.341h20.068c0.351,0,0.597-0.072,0.753-0.222c0.254-0.255,0.285-0.448,0.285-0.571v-25.548
			c0-0.625,0.509-1.135,1.134-1.135h8.125c0.625,0,1.134,0.51,1.134,1.135v25.012c0,3.241-1.122,6.007-3.333,8.219
			c-2.293,2.309-5.018,3.48-8.097,3.48H353.846z"/>
		<linearGradient id="SVGID_12_" gradientUnits="userSpaceOnUse" x1="319.4517" y1="344.4971" x2="684.4435" y2="395.4959">
			<stop  offset="0" style="stop-color:#FEDD10"/>
			<stop  offset="1" style="stop-color:#F06623"/>
		</linearGradient>
		<path fill="url(#SVGID_12_)" d="M353.846,370.427c-0.313,0-0.567-0.254-0.567-0.567v-35.576c0-0.313,0.254-0.567,0.567-0.567
			h8.125c0.313,0,0.567,0.254,0.567,0.567v26.908h20.635c0.503,0,0.878-0.124,1.145-0.379c0.306-0.307,0.46-0.631,0.46-0.981
			v-25.548c0-0.313,0.254-0.567,0.567-0.567h8.125c0.313,0,0.567,0.254,0.567,0.567v25.012c0,3.086-1.065,5.716-3.167,7.817
			c-2.183,2.198-4.773,3.314-7.696,3.314H353.846z"/>
		<linearGradient id="SVGID_13_" gradientUnits="userSpaceOnUse" x1="592.7217" y1="313.6934" x2="248.7181" y2="372.694">
			<stop  offset="0" style="stop-color:#FEDD10"/>
			<stop  offset="1" style="stop-color:#F06623"/>
		</linearGradient>
		<path fill="url(#SVGID_13_)" d="M361.971,361.759h21.202c0.65,0,1.164-0.18,1.537-0.536c0.423-0.424,0.635-0.888,0.635-1.392
			v-25.548h8.125v25.012c0,2.943-1,5.415-3.001,7.416c-2.083,2.099-4.514,3.148-7.295,3.148h-29.327v-35.576h8.125V361.759z"/>
		<path fill="#7C3619" d="M413.6,370.994c-0.625,0-1.134-0.51-1.134-1.135v-26.314h-14.117c-0.625,0-1.134-0.51-1.134-1.135v-8.127
			c0-0.625,0.509-1.135,1.134-1.135h38.112c0.625,0,1.134,0.51,1.134,1.135v8.127c0,0.625-0.509,1.135-1.134,1.135h-13.603v26.314
			c0,0.625-0.509,1.135-1.134,1.135H413.6z"/>
		<linearGradient id="SVGID_14_" gradientUnits="userSpaceOnUse" x1="320.4365" y1="337.457" x2="685.4274" y2="388.4557">
			<stop  offset="0" style="stop-color:#FEDD10"/>
			<stop  offset="1" style="stop-color:#F06623"/>
		</linearGradient>
		<path fill="url(#SVGID_14_)" d="M413.6,370.427c-0.313,0-0.566-0.254-0.566-0.567v-26.882h-14.685
			c-0.313,0-0.567-0.254-0.567-0.567v-8.127c0-0.313,0.254-0.567,0.567-0.567h38.112c0.313,0,0.566,0.254,0.566,0.567v8.127
			c0,0.313-0.254,0.567-0.566,0.567h-14.17v26.882c0,0.313-0.254,0.567-0.566,0.567H413.6z"/>
		<linearGradient id="SVGID_15_" gradientUnits="userSpaceOnUse" x1="593.8955" y1="320.5371" x2="249.8912" y2="379.5379">
			<stop  offset="0" style="stop-color:#FEDD10"/>
			<stop  offset="1" style="stop-color:#F06623"/>
		</linearGradient>
		<path fill="url(#SVGID_15_)" d="M436.461,334.283v8.127h-14.736v27.449H413.6V342.41h-15.251v-8.127H436.461z"/>
		<path fill="#7C3619" d="M451.865,371.103c-3.098,0-5.839-1.18-8.146-3.504c-2.221-2.221-3.348-5-3.348-8.26v-14.533
			c0-3.262,1.128-6.043,3.351-8.266c2.306-2.321,5.045-3.5,8.143-3.5h18.061c3.096,0,5.837,1.179,8.145,3.504
			c2.221,2.221,3.348,5.001,3.348,8.262v14.533c0,3.259-1.127,6.039-3.351,8.263c-2.304,2.322-5.044,3.501-8.142,3.501H451.865z
			 M469.926,360.683c0.465,0,0.669-0.138,0.782-0.241c0.169-0.18,0.27-0.378,0.27-0.563v-15.612c0-0.069,0-0.28-0.32-0.612
			c-0.133-0.119-0.388-0.192-0.731-0.192h-2.271c-0.077,0.017-0.154,0.025-0.231,0.025h-13.056c-0.078,0-0.158-0.009-0.237-0.025
			h-2.265c-0.466,0-0.669,0.137-0.781,0.239c-0.172,0.181-0.271,0.379-0.271,0.565v15.612c0,0.069,0,0.28,0.322,0.615
			c0.17,0.152,0.493,0.189,0.73,0.189h2.273c0.075-0.016,0.152-0.024,0.229-0.024h13.056c0.079,0,0.157,0.009,0.233,0.024H469.926z"
			/>
		<linearGradient id="SVGID_16_" gradientUnits="userSpaceOnUse" x1="321.1211" y1="332.541" x2="686.1212" y2="383.541">
			<stop  offset="0" style="stop-color:#FEDD10"/>
			<stop  offset="1" style="stop-color:#F06623"/>
		</linearGradient>
		<path fill="url(#SVGID_16_)" d="M451.865,370.535c-2.942,0-5.547-1.123-7.743-3.336c-2.112-2.111-3.183-4.757-3.183-7.86v-14.533
			c0-3.105,1.07-5.752,3.184-7.864c2.195-2.211,4.801-3.334,7.742-3.334h18.061c2.94,0,5.545,1.123,7.742,3.336
			c2.111,2.111,3.184,4.757,3.184,7.862v14.533c0,3.104-1.072,5.748-3.186,7.861c-2.193,2.212-4.799,3.335-7.74,3.335H451.865z
			 M469.926,361.25c0.496,0,0.877-0.127,1.164-0.39c0.297-0.312,0.455-0.641,0.455-0.982v-15.612c0-0.343-0.157-0.672-0.48-1.006
			c-0.262-0.239-0.643-0.366-1.139-0.366h-2.342c-0.051,0.016-0.105,0.025-0.161,0.025h-13.056c-0.059,0-0.115-0.01-0.168-0.025
			h-2.334c-0.498,0-0.879,0.127-1.164,0.39c-0.299,0.311-0.455,0.64-0.455,0.982v15.612c0,0.342,0.156,0.672,0.479,1.008
			c0.261,0.237,0.643,0.364,1.14,0.364h2.344c0.051-0.016,0.104-0.024,0.158-0.024h13.056c0.058,0,0.112,0.009,0.165,0.024H469.926z
			"/>
		<linearGradient id="SVGID_17_" gradientUnits="userSpaceOnUse" x1="595.4189" y1="328.998" x2="251.4149" y2="387.9988">
			<stop  offset="0" style="stop-color:#FEDD10"/>
			<stop  offset="1" style="stop-color:#F06623"/>
		</linearGradient>
		<path fill="url(#SVGID_17_)" d="M477.266,337.343c-2.095-2.11-4.54-3.168-7.34-3.168h-8.758h-0.547h-8.756
			c-2.801,0-5.246,1.058-7.341,3.168c-2.013,2.012-3.019,4.5-3.019,7.463v14.533c0,2.961,1.006,5.448,3.019,7.461
			c2.095,2.111,4.54,3.168,7.341,3.168h8.756h0.547h8.758c2.8,0,5.245-1.057,7.34-3.168c2.012-2.013,3.019-4.5,3.019-7.461v-14.533
			C480.284,341.843,479.277,339.354,477.266,337.343z M472.111,359.878c0,0.492-0.213,0.958-0.639,1.4
			c-0.393,0.358-0.908,0.539-1.547,0.539h-2.503v-0.024h-6.255h-0.547h-6.254v0.024h-2.502c-0.641,0-1.156-0.181-1.549-0.539
			c-0.425-0.442-0.638-0.908-0.638-1.4v-15.612c0-0.492,0.213-0.959,0.638-1.399c0.393-0.36,0.908-0.54,1.549-0.54h2.502v0.025
			h6.254h0.547h6.255v-0.025h2.503c0.639,0,1.154,0.18,1.547,0.54c0.426,0.44,0.639,0.907,0.639,1.399V359.878z"/>
		<path fill="#7C3619" d="M573.658,370.994c-0.625,0-1.135-0.51-1.135-1.135v-35.576c0-0.625,0.51-1.135,1.135-1.135h8.122
			c0.625,0,1.135,0.51,1.135,1.135v35.576c0,0.625-0.51,1.135-1.135,1.135H573.658z"/>
		<linearGradient id="SVGID_18_" gradientUnits="userSpaceOnUse" x1="323.3584" y1="316.5303" x2="688.3585" y2="367.5303">
			<stop  offset="0" style="stop-color:#FEDD10"/>
			<stop  offset="1" style="stop-color:#F06623"/>
		</linearGradient>
		<path fill="url(#SVGID_18_)" d="M573.658,370.427c-0.313,0-0.567-0.254-0.567-0.567v-35.576c0-0.313,0.254-0.567,0.567-0.567
			h8.122c0.313,0,0.567,0.254,0.567,0.567v35.576c0,0.313-0.254,0.567-0.567,0.567H573.658z"/>
		<linearGradient id="SVGID_19_" gradientUnits="userSpaceOnUse" x1="598.6846" y1="348.4746" x2="254.6852" y2="407.4745">
			<stop  offset="0" style="stop-color:#FEDD10"/>
			<stop  offset="1" style="stop-color:#F06623"/>
		</linearGradient>
		<path fill="url(#SVGID_19_)" d="M573.658,334.283h8.122v35.576h-8.122V334.283z"/>
		<path fill="#7C3619" d="M603.228,370.994c-0.425,0-0.811-0.234-1.007-0.612l-18.396-35.577c-0.18-0.35-0.165-0.774,0.039-1.11
			c0.204-0.337,0.575-0.546,0.969-0.546h9.148c0.427,0,0.813,0.236,1.008,0.615l12.728,24.555l12.705-24.557
			c0.196-0.378,0.582-0.613,1.008-0.613h9.15c0.394,0,0.765,0.209,0.969,0.546c0.204,0.336,0.219,0.761,0.039,1.109l-18.397,35.577
			c-0.197,0.379-0.583,0.613-1.008,0.613H603.228z"/>
		<linearGradient id="SVGID_20_" gradientUnits="userSpaceOnUse" x1="324.1025" y1="311.1592" x2="689.1104" y2="362.1602">
			<stop  offset="0" style="stop-color:#FEDD10"/>
			<stop  offset="1" style="stop-color:#F06623"/>
		</linearGradient>
		<path fill="url(#SVGID_20_)" d="M603.228,370.427c-0.212,0-0.406-0.119-0.504-0.307l-18.395-35.576
			c-0.091-0.176-0.083-0.387,0.02-0.556s0.286-0.272,0.484-0.272h9.148c0.212,0,0.406,0.118,0.503,0.307l13.233,25.528
			l13.208-25.528c0.098-0.188,0.292-0.307,0.504-0.307h9.15c0.198,0,0.382,0.104,0.484,0.272s0.11,0.38,0.02,0.556l-18.397,35.576
			c-0.098,0.188-0.292,0.307-0.504,0.307H603.228z"/>
		<linearGradient id="SVGID_21_" gradientUnits="userSpaceOnUse" x1="599.2793" y1="351.9385" x2="255.2792" y2="410.9385">
			<stop  offset="0" style="stop-color:#FEDD10"/>
			<stop  offset="1" style="stop-color:#F06623"/>
		</linearGradient>
		<path fill="url(#SVGID_21_)" d="M630.58,334.283l-18.397,35.576h-8.955l-18.395-35.576h9.148l13.736,26.5l13.712-26.5H630.58z"/>
		<path fill="#7C3619" d="M643.927,370.994c-3.065,0-5.79-1.172-8.098-3.482c-2.212-2.211-3.334-4.976-3.334-8.217v-25.012
			c0-0.625,0.51-1.135,1.135-1.135h36.087c0.625,0,1.135,0.51,1.135,1.135v8.127c0,0.625-0.51,1.135-1.135,1.135h-26.828v3.318
			h26.828c0.625,0,1.135,0.51,1.135,1.135v8.148c0,0.625-0.51,1.135-1.135,1.135h-26.828v2.55c0,0.123,0.031,0.317,0.304,0.592
			c0.134,0.133,0.382,0.201,0.734,0.201h25.79c0.625,0,1.135,0.51,1.135,1.135v8.101c0,0.625-0.51,1.135-1.135,1.135H643.927z"/>
		<linearGradient id="SVGID_22_" gradientUnits="userSpaceOnUse" x1="324.8594" y1="305.7383" x2="689.868" y2="356.7395">
			<stop  offset="0" style="stop-color:#FEDD10"/>
			<stop  offset="1" style="stop-color:#F06623"/>
		</linearGradient>
		<path fill="url(#SVGID_22_)" d="M643.927,370.427c-2.909,0-5.499-1.115-7.696-3.315c-2.102-2.101-3.168-4.73-3.168-7.816v-25.012
			c0-0.313,0.254-0.567,0.567-0.567h36.087c0.313,0,0.567,0.254,0.567,0.567v8.127c0,0.313-0.254,0.567-0.567,0.567h-27.396v4.453
			h27.396c0.313,0,0.567,0.254,0.567,0.567v8.148c0,0.313-0.254,0.567-0.567,0.567h-27.396v3.117c0,0.35,0.153,0.674,0.469,0.991
			c0.249,0.248,0.621,0.369,1.137,0.369h25.79c0.313,0,0.567,0.254,0.567,0.567v8.101c0,0.313-0.254,0.567-0.567,0.567H643.927z"/>
		<linearGradient id="SVGID_23_" gradientUnits="userSpaceOnUse" x1="600.7979" y1="360.7969" x2="256.798" y2="419.7969">
			<stop  offset="0" style="stop-color:#FEDD10"/>
			<stop  offset="1" style="stop-color:#F06623"/>
		</linearGradient>
		<path fill="url(#SVGID_23_)" d="M669.717,342.41h-27.963v5.588h27.963v8.148h-27.963v3.685c0,0.504,0.213,0.968,0.635,1.392
			c0.357,0.356,0.871,0.536,1.538,0.536h25.79v8.101h-25.79c-2.767,0-5.198-1.05-7.295-3.148c-2.002-2.001-3.002-4.473-3.002-7.416
			v-25.012h36.087V342.41z"/>
		<path fill="#7C3619" d="M560.214,370.994c-0.419,0-0.802-0.23-1-0.601l-5.635-10.573h-15.191v10.039
			c0,0.625-0.51,1.135-1.135,1.135h-8.126c-0.625,0-1.135-0.51-1.135-1.135v-19.325c0-0.625,0.51-1.135,1.135-1.135h29.524
			c0.241,0,0.443-0.09,0.654-0.293c0.141-0.14,0.212-0.37,0.212-0.696v-4.865h-30.149c-0.345,0-0.667-0.155-0.884-0.425
			c-0.216-0.27-0.298-0.617-0.224-0.953c0.453-2.079,1.499-3.965,3.109-5.603c2.212-2.266,4.938-3.416,8.104-3.416h29.303
			c0.625,0,1.135,0.51,1.135,1.135v14.127c0,3.16-1.104,5.876-3.281,8.071c-0.82,0.835-1.73,1.524-2.71,2.053l5.407,10.817
			c0.175,0.35,0.156,0.773-0.05,1.104c-0.205,0.332-0.574,0.538-0.964,0.538H560.214z"/>
		<linearGradient id="SVGID_24_" gradientUnits="userSpaceOnUse" x1="322.8066" y1="320.4727" x2="687.8068" y2="371.4727">
			<stop  offset="0" style="stop-color:#FEDD10"/>
			<stop  offset="1" style="stop-color:#F06623"/>
		</linearGradient>
		<path fill="url(#SVGID_24_)" d="M560.214,370.427c-0.209,0-0.401-0.116-0.5-0.301l-5.795-10.873H537.82v10.606
			c0,0.313-0.254,0.567-0.567,0.567h-8.126c-0.313,0-0.567-0.254-0.567-0.567v-19.325c0-0.313,0.254-0.567,0.567-0.567h29.524
			c0.389,0,0.73-0.147,1.047-0.451c0.258-0.257,0.387-0.621,0.387-1.105v-5.433h-30.717c-0.172,0-0.334-0.078-0.441-0.212
			s-0.149-0.309-0.112-0.477c0.43-1.974,1.426-3.767,2.96-5.327c2.102-2.153,4.692-3.246,7.699-3.246h29.303
			c0.313,0,0.567,0.254,0.567,0.567v14.127c0,3.006-1.049,5.587-3.116,7.672c-0.919,0.936-1.949,1.675-3.067,2.201l5.66,11.322
			c0.088,0.176,0.079,0.385-0.024,0.552s-0.286,0.27-0.482,0.27H560.214z"/>
		<linearGradient id="SVGID_25_" gradientUnits="userSpaceOnUse" x1="597.9912" y1="344.4258" x2="253.9838" y2="403.4271">
			<stop  offset="0" style="stop-color:#FEDD10"/>
			<stop  offset="1" style="stop-color:#F06623"/>
		</linearGradient>
		<path fill="url(#SVGID_25_)" d="M568.776,348.41v-14.127h-29.303c-2.863,0-5.294,1.026-7.295,3.076
			c-1.471,1.496-2.403,3.181-2.811,5.051h10.105h11.037h10.142v6c0,0.635-0.187,1.141-0.562,1.515
			c-0.423,0.406-0.902,0.609-1.439,0.609h-8.141h-13.258h-8.126v19.325h8.126v-11.174h17.006l5.955,11.174h8.1l-5.928-11.858
			c1.268-0.503,2.416-1.276,3.439-2.318C567.793,353.698,568.776,351.274,568.776,348.41z"/>
		<path fill="#7C3619" d="M486.371,370.771c-0.625,0-1.133-0.51-1.133-1.135v-18.789c0-0.625,0.508-1.135,1.133-1.135h8.09
			c0.625,0,1.133,0.51,1.133,1.135v9.107h10.362c5.578,0,8.649-2.839,8.649-7.995c0-4.408-3.88-7.994-8.649-7.994h-19.585
			c-0.625,0-1.133-0.51-1.133-1.135v-8.547c0-0.625,0.508-1.135,1.133-1.135h20.309c6.841,0,11.999,2.509,15.331,7.457
			c1.121,1.664,2.044,3.695,2.821,6.209c0.893,2.893,0.894,7.313,0.002,10.282c-0.735,2.455-1.658,4.488-2.823,6.217
			c-3.333,4.948-8.491,7.457-15.331,7.457H486.371z"/>
		<linearGradient id="SVGID_26_" gradientUnits="userSpaceOnUse" x1="321.8398" y1="327.4326" x2="686.8313" y2="378.4314">
			<stop  offset="0" style="stop-color:#FEDD10"/>
			<stop  offset="1" style="stop-color:#F06623"/>
		</linearGradient>
		<path fill="url(#SVGID_26_)" d="M486.371,370.203c-0.313,0-0.566-0.254-0.566-0.567v-18.789c0-0.313,0.254-0.567,0.566-0.567h8.09
			c0.313,0,0.566,0.254,0.566,0.567v9.675h10.929c5.857,0,9.217-3.121,9.217-8.563c0-4.721-4.135-8.562-9.217-8.562h-19.585
			c-0.313,0-0.566-0.254-0.566-0.567v-8.547c0-0.313,0.254-0.567,0.566-0.567h20.309c6.641,0,11.641,2.425,14.86,7.206
			c1.091,1.618,1.99,3.601,2.75,6.06c0.863,2.798,0.864,7.076,0.001,9.952c-0.718,2.397-1.617,4.382-2.75,6.063
			c-3.222,4.781-8.222,7.206-14.861,7.206H486.371z"/>
		<linearGradient id="SVGID_27_" gradientUnits="userSpaceOnUse" x1="595.2617" y1="335.2012" x2="256.8875" y2="393.2363">
			<stop  offset="0" style="stop-color:#FEDD10"/>
			<stop  offset="1" style="stop-color:#F06623"/>
		</linearGradient>
		<path fill="url(#SVGID_27_)" d="M523.748,347.148c-0.679-2.196-1.518-4.188-2.678-5.91c-3.124-4.638-7.921-6.955-14.391-6.955
			h-20.309v8.547h8.09h4.813h6.683c5.494,0,9.784,4.194,9.784,9.129c0,6.385-4.29,9.13-9.784,9.13h-11.495v-4.318v-5.924h-8.09
			v5.924v12.865h20.309c6.47,0,11.267-2.318,14.391-6.955c1.16-1.723,2.019-3.708,2.678-5.91
			C524.612,353.891,524.55,349.746,523.748,347.148z"/>
		<g>
			<linearGradient id="SVGID_28_" gradientUnits="userSpaceOnUse" x1="330.0063" y1="359.5" x2="330.0063" y2="345">
				<stop  offset="0" style="stop-color:#FFFFFF;stop-opacity:0.6"/>
				<stop  offset="1" style="stop-color:#FFFFFF;stop-opacity:0"/>
			</linearGradient>
			<path fill="url(#SVGID_28_)" d="M321.345,334.283c-2.781,0-5.212,1.052-7.296,3.149c-2,1.999-3,4.473-3,7.417v10.535h37.915
				v-21.102H321.345z M319.174,352.706v-8.393c0-0.505,0.212-0.968,0.634-1.392c0.375-0.358,0.888-0.536,1.537-0.536h19.495v10.32
				H319.174z"/>
			<linearGradient id="SVGID_29_" gradientUnits="userSpaceOnUse" x1="389.4067" y1="359.5" x2="389.4067" y2="345">
				<stop  offset="0" style="stop-color:#FFFFFF;stop-opacity:0.6"/>
				<stop  offset="1" style="stop-color:#FFFFFF;stop-opacity:0"/>
			</linearGradient>
			<rect x="385.345" y="334.283" fill="url(#SVGID_29_)" width="8.125" height="21.102"/>
			<linearGradient id="SVGID_30_" gradientUnits="userSpaceOnUse" x1="357.9082" y1="359.5" x2="357.9082" y2="345">
				<stop  offset="0" style="stop-color:#FFFFFF;stop-opacity:0.6"/>
				<stop  offset="1" style="stop-color:#FFFFFF;stop-opacity:0"/>
			</linearGradient>
			<rect x="353.846" y="334.283" fill="url(#SVGID_30_)" width="8.125" height="21.102"/>
			<linearGradient id="SVGID_31_" gradientUnits="userSpaceOnUse" x1="417.4043" y1="359.5" x2="417.4043" y2="345">
				<stop  offset="0" style="stop-color:#FFFFFF;stop-opacity:0.6"/>
				<stop  offset="1" style="stop-color:#FFFFFF;stop-opacity:0"/>
			</linearGradient>
			<polygon fill="url(#SVGID_31_)" points="436.461,342.41 436.461,334.283 398.349,334.283 398.349,342.41 413.6,342.41 
				413.6,355.385 421.725,355.385 421.725,342.41 			"/>
			<linearGradient id="SVGID_32_" gradientUnits="userSpaceOnUse" x1="460.8945" y1="359.5" x2="460.8945" y2="345">
				<stop  offset="0" style="stop-color:#FFFFFF;stop-opacity:0.6"/>
				<stop  offset="1" style="stop-color:#FFFFFF;stop-opacity:0"/>
			</linearGradient>
			<path fill="url(#SVGID_32_)" d="M477.266,337.343c-2.095-2.11-4.54-3.168-7.34-3.168h-8.758h-0.547h-8.756
				c-2.801,0-5.246,1.058-7.341,3.168c-2.013,2.012-3.019,4.5-3.019,7.463v10.579h8.173v-11.119c0-0.492,0.213-0.959,0.638-1.399
				c0.393-0.36,0.908-0.54,1.549-0.54h2.502v0.025h6.254h0.547h6.255v-0.025h2.503c0.639,0,1.154,0.18,1.547,0.54
				c0.426,0.44,0.639,0.907,0.639,1.399v11.119h8.173v-10.579C480.284,341.843,479.277,339.354,477.266,337.343z"/>
			<linearGradient id="SVGID_33_" gradientUnits="userSpaceOnUse" x1="577.7188" y1="359.5" x2="577.7188" y2="345">
				<stop  offset="0" style="stop-color:#FFFFFF;stop-opacity:0.6"/>
				<stop  offset="1" style="stop-color:#FFFFFF;stop-opacity:0"/>
			</linearGradient>
			<rect x="573.658" y="334.283" fill="url(#SVGID_33_)" width="8.122" height="21.102"/>
			<linearGradient id="SVGID_34_" gradientUnits="userSpaceOnUse" x1="594.877" y1="359.5" x2="594.877" y2="345">
				<stop  offset="0" style="stop-color:#FFFFFF;stop-opacity:0.6"/>
				<stop  offset="1" style="stop-color:#FFFFFF;stop-opacity:0"/>
			</linearGradient>
			<polygon fill="url(#SVGID_34_)" points="593.981,334.283 584.833,334.283 595.743,355.385 604.92,355.385 			"/>
			<linearGradient id="SVGID_35_" gradientUnits="userSpaceOnUse" x1="620.5449" y1="359.5" x2="620.5449" y2="345">
				<stop  offset="0" style="stop-color:#FFFFFF;stop-opacity:0.6"/>
				<stop  offset="1" style="stop-color:#FFFFFF;stop-opacity:0"/>
			</linearGradient>
			<polygon fill="url(#SVGID_35_)" points="621.43,334.283 610.511,355.385 619.668,355.385 630.58,334.283 			"/>
			<linearGradient id="SVGID_36_" gradientUnits="userSpaceOnUse" x1="651.6738" y1="359.5" x2="651.6738" y2="345">
				<stop  offset="0" style="stop-color:#FFFFFF;stop-opacity:0.6"/>
				<stop  offset="1" style="stop-color:#FFFFFF;stop-opacity:0"/>
			</linearGradient>
			<polygon fill="url(#SVGID_36_)" points="669.717,347.998 641.754,347.998 641.754,342.41 669.717,342.41 669.717,334.283 
				633.63,334.283 633.63,355.385 669.717,355.385 			"/>
			<linearGradient id="SVGID_37_" gradientUnits="userSpaceOnUse" x1="548.9512" y1="359.5" x2="548.9512" y2="345">
				<stop  offset="0" style="stop-color:#FFFFFF;stop-opacity:0.6"/>
				<stop  offset="1" style="stop-color:#FFFFFF;stop-opacity:0"/>
			</linearGradient>
			<path fill="url(#SVGID_37_)" d="M568.776,334.283h-29.303c-2.863,0-5.294,1.026-7.295,3.076
				c-1.471,1.496-2.403,3.181-2.811,5.051h10.105h11.037h10.142v6c0,0.635-0.187,1.141-0.562,1.515
				c-0.423,0.406-0.902,0.609-1.439,0.609h-8.141h-13.258h-8.126v4.851h36.968c1.78-1.929,2.682-4.25,2.682-6.975V334.283z"/>
			<linearGradient id="SVGID_38_" gradientUnits="userSpaceOnUse" x1="490.416" y1="359.5" x2="490.416" y2="345">
				<stop  offset="0" style="stop-color:#FFFFFF;stop-opacity:0.6"/>
				<stop  offset="1" style="stop-color:#FFFFFF;stop-opacity:0"/>
			</linearGradient>
			<rect x="486.371" y="350.847" fill="url(#SVGID_38_)" width="8.09" height="4.538"/>
			<linearGradient id="SVGID_39_" gradientUnits="userSpaceOnUse" x1="505.3691" y1="359.5" x2="505.3691" y2="345">
				<stop  offset="0" style="stop-color:#FFFFFF;stop-opacity:0.6"/>
				<stop  offset="1" style="stop-color:#FFFFFF;stop-opacity:0"/>
			</linearGradient>
			<path fill="url(#SVGID_39_)" d="M523.748,347.148c-0.679-2.196-1.518-4.188-2.678-5.91c-3.124-4.638-7.921-6.955-14.391-6.955
				h-20.309v8.547h8.09h4.813h6.683c5.494,0,9.784,4.194,9.784,9.129c0,1.291-0.183,2.425-0.508,3.426h8.837
				C524.569,352.67,524.429,349.354,523.748,347.148z"/>
		</g>
	</g>
</g>
<polygon fill="#FFDE17" points="611.437,607.158 611.535,607.158 473.761,419.743 403.265,419.743 413.557,433.743 413.458,433.743 
	544.5,612 614.996,612 "/>
<polygon fill="#F26522" points="476.225,558.845 476.332,558.845 360.61,401.428 290.113,401.428 296.96,410.741 296.814,410.741 
	412.536,568.158 412.574,568.158 444.804,612 515.301,612 "/>
</svg>
